<?xml version="1.0" standalone="no"?>
<!DOCTYPE svg PUBLIC "-//W3C//DTD SVG 20010904//EN"
 "http://www.w3.org/TR/2001/REC-SVG-20010904/DTD/svg10.dtd">
<svg version="1.0" xmlns="http://www.w3.org/2000/svg"
 width="512.000000pt" height="512.000000pt" viewBox="0 0 512.000000 512.000000"
 preserveAspectRatio="xMidYMid meet">
<metadata>
Created by potrace 1.11, written by Peter Selinger 2001-2013
</metadata>
<g transform="translate(0.000000,512.000000) scale(0.100000,-0.100000)"
fill="#000000" stroke="none">
<path d="M0 2560 l0 -2560 2560 0 2560 0 0 2560 0 2560 -2560 0 -2560 0 0
-2560z m2769 1969 c319 -74 569 -323 657 -655 23 -86 26 -312 5 -392 -7 -29
-11 -56 -8 -59 3 -3 30 1 59 8 80 21 306 18 392 -5 409 -108 679 -452 679
-866 0 -416 -272 -761 -683 -866 -92 -23 -306 -26 -388 -5 -29 7 -56 11 -59 8
-3 -3 1 -30 8 -59 21 -82 18 -296 -5 -388 -85 -334 -334 -583 -661 -661 -193
-46 -411 -22 -590 65 -244 119 -398 307 -477 583 -18 63 -22 104 -23 213 0 81
6 156 14 188 7 29 11 56 8 59 -3 3 -30 -1 -59 -8 -32 -8 -107 -14 -188 -14
-109 1 -150 5 -213 23 -276 79 -464 233 -583 477 -117 242 -117 528 0 770 121
247 324 411 596 481 92 23 306 26 388 5 29 -7 56 -11 59 -8 3 3 -1 30 -8 59
-21 82 -18 296 5 388 70 273 242 485 487 599 190 89 380 108 588 60z"/>
<path d="M2424 4326 c-316 -72 -534 -340 -534 -656 0 -120 20 -202 73 -310 35
-72 60 -104 161 -208 l120 -123 80 80 80 80 -97 101 c-54 55 -108 118 -122
140 -41 64 -65 152 -65 234 0 190 108 347 288 417 45 18 77 23 152 23 107 0
173 -20 257 -78 185 -126 239 -403 116 -599 -14 -23 -140 -157 -279 -297
l-254 -256 81 -79 80 -80 278 280 c264 267 279 284 319 365 53 108 72 190 72
310 0 183 -62 332 -195 466 -131 132 -266 192 -450 200 -64 2 -122 -1 -161
-10z"/>
<path d="M2470 3874 c-104 -45 -157 -160 -125 -271 14 -48 29 -69 116 -157
l99 -101 99 101 c87 88 102 109 116 157 32 112 -22 227 -127 271 -47 20 -132
20 -178 0z"/>
<path d="M1270 3207 c-118 -36 -196 -82 -286 -172 -141 -140 -199 -278 -199
-475 0 -196 58 -334 199 -476 131 -131 282 -194 467 -194 208 0 335 57 517
234 l123 120 -80 80 -80 79 -108 -103 c-140 -134 -214 -172 -344 -178 -202
-10 -366 97 -440 286 -32 81 -32 223 0 304 104 266 415 371 654 221 23 -14
157 -140 297 -279 l256 -254 79 81 80 80 -280 278 c-267 264 -284 279 -365
319 -110 53 -191 72 -315 71 -74 0 -120 -6 -175 -22z"/>
<path d="M3492 3210 c-126 -33 -202 -82 -340 -214 l-123 -120 80 -80 80 -79
106 101 c142 136 217 175 349 180 70 3 105 -1 152 -16 163 -51 277 -185 307
-358 27 -160 -51 -338 -190 -430 -85 -56 -160 -76 -269 -72 -82 3 -100 8 -170
43 -73 35 -100 59 -339 296 l-261 259 -79 -81 -80 -80 280 -277 c239 -237 290
-283 351 -315 197 -103 439 -103 637 0 93 48 220 173 270 263 60 110 82 198
82 330 0 197 -58 336 -199 475 -93 93 -184 145 -302 175 -101 26 -242 26 -342
0z"/>
<path d="M1405 2781 c-107 -28 -175 -113 -175 -221 0 -153 140 -258 287 -215
48 14 69 30 157 115 l101 99 -90 91 c-117 118 -193 153 -280 131z"/>
<path d="M3596 2774 c-39 -12 -69 -35 -150 -115 l-101 -99 101 -99 c88 -87
109 -102 157 -116 147 -43 287 62 287 215 0 155 -146 261 -294 214z"/>
<path d="M2279 2123 c-234 -237 -280 -289 -312 -349 -103 -197 -103 -438 0
-637 47 -92 172 -219 263 -270 110 -60 197 -82 330 -82 197 0 336 58 475 199
133 134 195 284 195 471 0 204 -58 330 -234 513 l-120 123 -80 -80 -79 -80
101 -106 c77 -81 111 -125 139 -183 37 -74 38 -79 38 -186 0 -107 -1 -114 -37
-189 -162 -339 -634 -339 -796 0 -36 75 -37 82 -37 189 0 108 1 112 39 190 36
73 60 99 297 339 l259 261 -78 77 c-43 42 -80 77 -83 77 -3 0 -129 -125 -280
-277z"/>
<path d="M2457 1671 c-82 -85 -98 -107 -112 -154 -43 -147 62 -287 215 -287
153 0 258 140 215 287 -14 47 -30 69 -112 154 -53 55 -99 99 -103 99 -4 0 -50
-44 -103 -99z"/>
</g>
</svg>
